<?xml version="1.0" encoding="utf-8"?>
<!-- Generator: Adobe Illustrator 15.1.0, SVG Export Plug-In . SVG Version: 6.00 Build 0)  -->
<!DOCTYPE svg PUBLIC "-//W3C//DTD SVG 1.1//EN" "http://www.w3.org/Graphics/SVG/1.1/DTD/svg11.dtd">
<svg version="1.1" id="Lager_1" xmlns="http://www.w3.org/2000/svg" xmlns:xlink="http://www.w3.org/1999/xlink" x="0px" y="0px"
	 width="81px" height="100px" viewBox="0 0 81 100" enable-background="new 0 0 81 100" xml:space="preserve">
<path fill="#FFFFFF" d="M40.625,45.361c-6.012,0-10.889,4.877-10.889,10.889c0,6.012,4.877,10.889,10.889,10.889
	c6.012,0,10.889-4.877,10.889-10.889c0-0.83-0.109-1.637-0.293-2.411c7.971-9.271,20.313-23.727,26.904-31.964
	c2.258-2.82-0.227-5.487-3.125-3.125c-8.318,6.775-22.688,19.012-31.924,26.913C42.289,45.48,41.468,45.361,40.625,45.361z
	 M43.738,24.988c0-1.724-1.401-3.125-3.125-3.125c-1.724,0-3.125,1.401-3.125,3.125c0,1.724,1.401,3.125,3.125,3.125
	C42.337,28.113,43.738,26.712,43.738,24.988z M62.488,49.988c0,1.724,1.404,3.125,3.125,3.125s3.125-1.401,3.125-3.125
	c0-1.724-1.404-3.125-3.125-3.125S62.488,48.264,62.488,49.988z M28.113,24.988c-1.724,0-3.125,1.401-3.125,3.125
	c0,1.724,1.401,3.125,3.125,3.125c1.724,0,3.125-1.401,3.125-3.125C31.238,26.389,29.837,24.988,28.113,24.988z M21.863,37.488
	c0-1.724-1.401-3.125-3.125-3.125c-1.724,0-3.125,1.401-3.125,3.125c0,1.724,1.401,3.125,3.125,3.125
	C20.462,40.613,21.863,39.212,21.863,37.488z M12.488,49.988c0,1.724,1.401,3.125,3.125,3.125c1.724,0,3.125-1.401,3.125-3.125
	c0-1.724-1.401-3.125-3.125-3.125C13.889,46.863,12.488,48.264,12.488,49.988z M56.238,28.113c0-1.724-1.404-3.125-3.125-3.125
	s-3.125,1.401-3.125,3.125c0,1.724,1.404,3.125,3.125,3.125S56.238,29.837,56.238,28.113z M77.43,32.88l-6.715,8.783
	c0.732,2.655,1.16,5.444,1.16,8.337c0,17.262-13.995,31.25-31.25,31.25S9.375,67.262,9.375,50c0-17.255,13.995-31.25,31.25-31.25
	c6.434,0,12.402,1.95,17.371,5.283l7.738-5.92c-6.908-5.457-15.612-8.737-25.109-8.737C18.188,9.376,0,27.564,0,50.001
	c0,22.437,18.188,40.625,40.625,40.625c22.438,0,40.625-18.188,40.625-40.625C81.25,43.876,79.857,38.087,77.43,32.88L77.43,32.88z"
	/>
</svg>
